<?xml version="1.0" standalone="no"?>
<svg xmlns="http://www.w3.org/2000/svg" viewBox="0 0 293.18 29.266" width="293.18" height="29.266"><g fill="#0d6efd" color="#0d6efd" transform="translate(0, 0) scale(0.29)"><svg width="100.0" height="100.0" x="0.0" y="0.0" viewBox="0 0 100 100"><g><path d="M79.908,14.184C73.343,5.143,62.162-0.267,49.998-0.288c-12.16,0.021-23.34,5.431-29.907,14.472   c-6.588,9.071-8.961,21.879-6.684,36.062c1.559,9.705,3.499,21.784,8.805,31.559c3.014,5.55,7.397,10.604,11.724,13.521   c3.597,2.424,8.27,4.144,12.821,4.717c1.053,0.133,2.132,0.215,3.208,0.245L50,100.288l0.036-0.001   c1.076-0.03,2.155-0.112,3.208-0.245c4.552-0.573,9.224-2.293,12.821-4.717c4.326-2.916,8.709-7.97,11.725-13.521   c5.306-9.773,7.246-21.853,8.805-31.559C88.871,36.062,86.497,23.254,79.908,14.184z M61.821,58.061   c0.997,3.239,0.847,6.332-0.398,8.931c0.478,0.169,0.957,0.349,1.44,0.54c1.363,0.54,2.702,1.301,4.094,2.326   c1.738,1.28,3.2,3.064,4.117,5.024c1.299,2.777,1.428,5.74,0.362,8.344c-0.958,2.342-3.68,6.271-11.133,6.271c-0.001,0,0,0-0.001,0   c-0.484,0-0.993-0.017-1.512-0.049c-0.289-0.019-1.507-0.094-1.507-0.094c-2.545-0.157-4.948-0.306-7.284-0.306   c-2.337,0-4.742,0.149-7.288,0.307l-0.678,0.041c-0.275,0.017-0.551,0.034-0.824,0.051c-0.52,0.033-1.029,0.05-1.515,0.05   c-7.454,0-10.174-3.929-11.132-6.271c-1.065-2.603-0.936-5.565,0.362-8.342c0.917-1.961,2.38-3.746,4.119-5.026   c1.392-1.025,2.731-1.786,4.091-2.325c0.483-0.191,0.964-0.371,1.441-0.54c-1.244-2.599-1.396-5.691-0.398-8.93   c0.207-0.672,0.447-1.337,0.713-1.983c-11.625-5.817-17.471,2.229-19.442,5.94c-0.93-4.294-1.611-8.532-2.229-12.385   C16.233,43.49,16.159,37.632,17,32.222c0.677-4.357,1.945-8.312,3.775-11.815c6.768,4.5,17.341,12.791,29.225,12.791   s22.457-8.291,29.226-12.791c1.83,3.504,3.099,7.458,3.775,11.815c0.84,5.41,0.766,11.269-0.221,17.412   c-0.619,3.853-1.3,8.091-2.229,12.385c-1.971-3.712-7.818-11.758-19.442-5.94C61.374,56.725,61.614,57.389,61.821,58.061z"></path><path d="M56.158,72.139c-1.305-0.309-2.636-0.524-3.993-0.625c-0.722-0.053-1.443-0.057-2.165-0.037   c-0.722-0.02-1.443-0.017-2.165,0.037c-1.357,0.101-2.688,0.316-3.994,0.625c-1.478,0.349-2.923,0.817-4.332,1.376   c-0.936,0.371-1.835,0.927-2.648,1.525c-1.659,1.222-3.172,3.713-2.339,5.748c0.918,2.246,4.179,2.368,6.281,2.234   c0.44-0.027,0.886-0.054,1.329-0.081c2.622-0.162,5.272-0.33,7.868-0.33s5.246,0.168,7.868,0.329   c0.443,0.027,0.888,0.055,1.329,0.082c2.103,0.134,5.363,0.012,6.281-2.234c0.833-2.035-0.681-4.526-2.339-5.749   c-0.812-0.598-1.713-1.153-2.648-1.524C59.082,72.956,57.637,72.488,56.158,72.139z"></path><path d="M76.808,39.746c0.324-1.647,0.391-3.432,0.231-5.103c-0.083-0.87-0.251-1.748-0.491-2.589   c-0.107,0.213-0.203,0.326-0.275,0.416c-0.72,0.89-1.59,1.638-2.58,2.212c-0.283,0.165-0.575,0.313-0.871,0.456   c-1.685,0.811-3.51,1.284-5.34,1.638c-0.505,0.098-1.012,0.187-1.52,0.271c-1.679,0.277-3.381,0.542-4.976,1.162   c-1.11,0.431-2.181,1.111-2.992,1.993c-1.854,2.015-1.826,5.538-1.201,8.032c0.34,1.359,0.814,2.357,1.174,2.98   c0.096-0.125,0.181-0.257,0.258-0.348c0.01-0.012,0.021-0.024,0.029-0.034c0.351-0.372,0.815-0.66,1.26-0.905   c1.365-0.753,2.913-1.038,4.422-1.354c2.961-0.618,6.109-1.555,8.636-3.268C74.548,43.967,76.33,42.168,76.808,39.746z"></path><path d="M41.746,50.833c0.01,0.01,0.02,0.022,0.029,0.034c0.077,0.091,0.162,0.223,0.258,0.348c0.359-0.623,0.834-1.621,1.174-2.98   c0.625-2.494,0.653-6.018-1.201-8.032c-0.812-0.882-1.882-1.562-2.991-1.993c-1.596-0.62-3.298-0.885-4.977-1.162   c-0.507-0.084-1.015-0.173-1.52-0.271c-1.829-0.354-3.654-0.827-5.339-1.638c-0.295-0.143-0.587-0.291-0.871-0.456   c-0.99-0.574-1.86-1.322-2.581-2.212c-0.072-0.09-0.167-0.203-0.274-0.416c-0.241,0.841-0.409,1.719-0.491,2.589   c-0.16,1.671-0.093,3.455,0.231,5.103c0.477,2.422,2.26,4.221,4.236,5.561c2.526,1.713,5.674,2.649,8.635,3.268   c1.509,0.315,3.057,0.601,4.422,1.354C40.931,50.173,41.396,50.461,41.746,50.833z"></path><path d="M46.599,65.474c0.947,0.454,2.162,0.682,3.401,0.673c1.24,0.009,2.454-0.219,3.401-0.673   c0.633-0.305,1.301-0.795,1.74-1.351c1.131-1.429,1.037-3.363,0.528-5.017c-0.354-1.146-0.862-2.346-1.475-3.377   c-0.879-1.48-2.184-3.952-4.195-3.912c-2.012-0.04-3.316,2.432-4.195,3.912c-0.612,1.031-1.121,2.23-1.474,3.377   c-0.51,1.653-0.604,3.588,0.527,5.017C45.298,64.679,45.966,65.169,46.599,65.474z"></path></g></svg></g><line x1="41" y1="1" x2="41" y2="28" stroke="#376cbc" stroke-linecap="round"></line><path fill="#376cbc" fill-rule="nonzero" d="M5.02 1.83L5.02 16.35L7.14 16.35Q8.71 16.35 10.29 16.14Q11.87 15.93 13.39 15.43L13.39 15.43Q13.39 15.45 13.43 15.56Q13.46 15.67 13.51 15.86Q13.56 16.04 13.60 16.28Q13.64 16.52 13.64 16.76L13.64 16.76Q13.64 17.27 13.38 17.55Q13.11 17.84 12.50 17.96Q11.88 18.09 10.87 18.12Q9.86 18.14 8.36 18.14L8.36 18.14Q7.56 18.14 6.76 18.13Q5.95 18.12 5.26 18.10Q4.56 18.08 4.01 18.05Q3.47 18.02 3.18 18L3.18 18Q2.63 17.95 2.44 17.72Q2.26 17.50 2.26 16.99L2.26 16.99L2.26 2.68L0 2.68L0 1.76Q0.18 1.66 0.53 1.57Q0.88 1.48 1.34 1.39Q1.80 1.31 2.36 1.27Q2.91 1.22 3.48 1.22L3.48 1.22Q3.94 1.22 4.23 1.23Q4.52 1.24 4.70 1.29Q4.88 1.35 4.95 1.48Q5.02 1.61 5.02 1.83L5.02 1.83ZM18.01 11.16L24.08 11.16Q24.15 10.92 24.18 10.69Q24.20 10.45 24.20 10.20L24.20 10.20Q24.20 9.62 24.01 9.04Q23.81 8.46 23.44 7.99Q23.07 7.52 22.53 7.23Q21.98 6.94 21.28 6.94L21.28 6.94Q20.38 6.94 19.78 7.28Q19.17 7.63 18.79 8.21Q18.41 8.79 18.23 9.56Q18.06 10.32 18.01 11.16L18.01 11.16ZM15.28 12L15.28 12Q15.28 10.61 15.73 9.44Q16.18 8.27 17.03 7.43Q17.88 6.59 19.11 6.11Q20.34 5.64 21.90 5.64L21.90 5.64Q23.07 5.64 24 6.01Q24.93 6.39 25.57 7.02Q26.21 7.65 26.55 8.48Q26.89 9.32 26.89 10.22L26.89 10.22Q26.89 10.64 26.82 11.06Q26.75 11.48 26.55 11.82Q26.36 12.16 25.99 12.38Q25.63 12.60 25.04 12.60L25.04 12.60L18.04 12.60Q18.15 13.65 18.59 14.46Q19.02 15.27 19.70 15.83Q20.38 16.38 21.27 16.66Q22.16 16.95 23.19 16.95L23.19 16.95Q23.89 16.95 24.64 16.82Q25.39 16.70 26.19 16.44L26.19 16.44L26.58 17.23Q26.10 17.55 25.55 17.79Q25.00 18.02 24.41 18.17Q23.82 18.32 23.21 18.39Q22.61 18.46 22.02 18.46L22.02 18.46Q20.73 18.46 19.52 18.05Q18.30 17.65 17.36 16.84Q16.42 16.03 15.85 14.82Q15.28 13.62 15.28 12ZM37.32 17.09L37.32 16.97Q37.32 16.97 37.17 17.07Q37.01 17.17 36.73 17.32Q36.46 17.47 36.09 17.65Q35.72 17.84 35.28 17.99Q34.84 18.15 34.37 18.26Q33.89 18.36 33.41 18.36L33.41 18.36Q32.65 18.36 31.96 18.16Q31.27 17.95 30.74 17.52Q30.22 17.09 29.91 16.43Q29.60 15.77 29.60 14.86L29.60 14.86Q29.60 13.85 30.05 13.15Q30.50 12.45 31.31 12.01Q32.11 11.57 33.22 11.37Q34.34 11.18 35.67 11.18L35.67 11.18L37.32 11.18L37.32 10.30Q37.32 9.62 37.27 8.99Q37.22 8.37 37.03 7.90Q36.83 7.43 36.46 7.15Q36.09 6.87 35.47 6.87L35.47 6.87Q34.88 6.87 34.28 7.08Q33.68 7.30 33.11 7.63Q32.53 7.96 32.00 8.35Q31.48 8.74 31.04 9.09L31.04 9.09L30.08 7.80Q29.91 7.59 29.91 7.37L29.91 7.37Q29.91 6.98 30.39 6.67Q30.88 6.35 31.61 6.12Q32.34 5.89 33.19 5.77Q34.03 5.64 34.76 5.64L34.76 5.64Q35.84 5.64 36.80 5.89Q37.76 6.15 38.48 6.71Q39.20 7.27 39.62 8.15Q40.04 9.04 40.04 10.30L40.04 10.30L40.04 16.83L42.08 16.83L42.08 17.71Q41.88 17.81 41.54 17.91Q41.19 18 40.77 18.07Q40.35 18.14 39.88 18.18Q39.42 18.21 39 18.21L39 18.21Q38.72 18.21 38.43 18.18Q38.13 18.14 37.89 18.02Q37.65 17.89 37.49 17.68Q37.34 17.46 37.32 17.09L37.32 17.09ZM34.23 16.63L34.23 16.63Q34.64 16.63 35.17 16.52Q35.71 16.41 36.19 16.28L36.19 16.28Q36.75 16.13 37.32 15.91L37.32 15.91L37.32 12.62L35.36 12.62Q34.91 12.62 34.38 12.70Q33.84 12.79 33.38 13.01Q32.92 13.24 32.60 13.65Q32.29 14.06 32.29 14.73L32.29 14.73Q32.29 15.15 32.41 15.50Q32.54 15.84 32.79 16.10Q33.04 16.35 33.40 16.49Q33.76 16.63 34.23 16.63ZM43.25 6.32L43.25 6.32Q43.50 6.21 43.95 6.12Q44.39 6.02 44.92 5.96Q45.46 5.91 46.01 5.87Q46.57 5.84 47.03 5.84L47.03 5.84Q47.27 5.84 47.46 5.85Q47.65 5.86 47.78 5.92Q47.91 5.98 47.97 6.10Q48.04 6.22 48.04 6.46L48.04 6.46L48.04 9.27L49.52 7.15Q50.09 6.38 50.77 6.01Q51.46 5.64 52.32 5.64L52.32 5.64Q52.48 5.64 52.72 5.65Q52.96 5.67 53.19 5.74Q53.41 5.81 53.58 5.94Q53.74 6.07 53.74 6.29L53.74 6.29Q53.74 6.35 53.74 6.39Q53.74 6.42 53.72 6.48L53.72 6.48L53.21 8.13Q52.77 7.99 52.41 7.93Q52.05 7.88 51.75 7.88L51.75 7.88Q51.12 7.88 50.54 8.23Q49.97 8.59 49.49 9.08Q49.01 9.56 48.64 10.06Q48.27 10.56 48.04 10.83L48.04 10.83L48.04 14.47Q48.04 15.20 48.07 15.75Q48.11 16.30 48.16 16.71Q48.21 17.12 48.27 17.40Q48.33 17.67 48.36 17.84L48.36 17.84Q48.20 17.93 47.99 17.99Q47.79 18.06 47.56 18.11Q47.33 18.16 47.10 18.19Q46.88 18.21 46.69 18.21L46.69 18.21Q46.38 18.21 46.14 18.16Q45.89 18.11 45.70 17.98Q45.52 17.85 45.42 17.63Q45.32 17.41 45.32 17.09L45.32 17.09L45.32 7.20L43.25 7.20L43.25 6.32ZM56.94 17.09L56.94 7.17L54.88 7.17L54.88 6.29Q55.13 6.19 55.57 6.09Q56.02 6 56.55 5.94Q57.08 5.88 57.64 5.85Q58.20 5.81 58.65 5.81L58.65 5.81Q58.90 5.81 59.09 5.82Q59.27 5.84 59.40 5.89Q59.53 5.95 59.60 6.08Q59.66 6.20 59.66 6.43L59.66 6.43L59.66 7.01Q59.84 6.95 60.31 6.73Q60.79 6.50 61.46 6.26Q62.14 6.02 62.95 5.83Q63.76 5.64 64.61 5.64L64.61 5.64Q65.63 5.64 66.26 5.92Q66.89 6.20 67.24 6.70Q67.59 7.20 67.72 7.88Q67.84 8.55 67.84 9.36L67.84 9.36L67.84 16.83L69.88 16.83L69.88 17.71Q69.68 17.81 69.33 17.91Q68.99 18 68.57 18.07Q68.14 18.14 67.69 18.18Q67.23 18.21 66.81 18.21L66.81 18.21Q66.45 18.21 66.14 18.17Q65.84 18.13 65.61 18.01Q65.39 17.88 65.26 17.67Q65.13 17.45 65.13 17.09L65.13 17.09L65.13 9.60Q65.13 9 65.07 8.58Q65.00 8.16 64.82 7.89Q64.64 7.62 64.32 7.49Q64.00 7.37 63.49 7.37L63.49 7.37Q63.16 7.37 62.77 7.42Q62.38 7.46 61.96 7.54Q61.55 7.62 61.15 7.70Q60.76 7.78 60.44 7.86Q60.12 7.93 59.91 7.99Q59.70 8.05 59.66 8.06L59.66 8.06L59.66 14.47Q59.66 15.20 59.70 15.75Q59.73 16.30 59.78 16.71Q59.84 17.12 59.89 17.40Q59.95 17.67 59.99 17.84L59.99 17.84Q59.82 17.93 59.62 17.99Q59.41 18.06 59.19 18.11Q58.96 18.16 58.73 18.19Q58.50 18.21 58.31 18.21L58.31 18.21Q58.01 18.21 57.76 18.16Q57.52 18.11 57.33 17.98Q57.14 17.85 57.04 17.63Q56.94 17.41 56.94 17.09L56.94 17.09ZM76.18 6.41L76.18 16.83L78.22 16.83L78.22 17.71Q78.02 17.81 77.68 17.91Q77.33 18 76.91 18.07Q76.49 18.14 76.03 18.18Q75.57 18.21 75.15 18.21L75.15 18.21Q74.79 18.21 74.48 18.17Q74.18 18.13 73.95 18.01Q73.72 17.88 73.59 17.67Q73.46 17.45 73.46 17.09L73.46 17.09L73.46 7.15L71.40 7.15L71.40 6.27Q71.65 6.16 72.09 6.07Q72.54 5.98 73.07 5.92Q73.61 5.86 74.16 5.82Q74.72 5.79 75.18 5.79L75.18 5.79Q75.42 5.79 75.61 5.80Q75.80 5.81 75.93 5.87Q76.05 5.93 76.12 6.05Q76.18 6.18 76.18 6.41L76.18 6.41ZM73.18 1.92L73.18 1.92Q73.18 1.59 73.31 1.30Q73.44 1.01 73.66 0.80Q73.89 0.59 74.19 0.46Q74.50 0.34 74.84 0.34L74.84 0.34Q75.18 0.34 75.48 0.46Q75.79 0.59 76.01 0.80Q76.23 1.01 76.36 1.30Q76.49 1.59 76.49 1.92L76.49 1.92Q76.49 2.25 76.36 2.53Q76.23 2.81 76.01 3.02Q75.79 3.23 75.48 3.36Q75.18 3.48 74.84 3.48L74.84 3.48Q74.50 3.48 74.19 3.36Q73.89 3.23 73.66 3.02Q73.44 2.81 73.31 2.53Q73.18 2.25 73.18 1.92ZM81.86 17.09L81.86 7.17L79.79 7.17L79.79 6.29Q80.04 6.19 80.48 6.09Q80.93 6 81.46 5.94Q82.00 5.88 82.55 5.85Q83.11 5.81 83.57 5.81L83.57 5.81Q83.81 5.81 84 5.82Q84.19 5.84 84.32 5.89Q84.45 5.95 84.51 6.08Q84.57 6.20 84.57 6.43L84.57 6.43L84.57 7.01Q84.75 6.95 85.22 6.73Q85.70 6.50 86.38 6.26Q87.06 6.02 87.87 5.83Q88.68 5.64 89.52 5.64L89.52 5.64Q90.54 5.64 91.17 5.92Q91.80 6.20 92.16 6.70Q92.51 7.20 92.63 7.88Q92.75 8.55 92.75 9.36L92.75 9.36L92.75 16.83L94.79 16.83L94.79 17.71Q94.59 17.81 94.25 17.91Q93.90 18 93.48 18.07Q93.06 18.14 92.60 18.18Q92.14 18.21 91.72 18.21L91.72 18.21Q91.36 18.21 91.05 18.17Q90.75 18.13 90.53 18.01Q90.30 17.88 90.18 17.67Q90.05 17.45 90.05 17.09L90.05 17.09L90.05 9.60Q90.05 9 89.98 8.58Q89.92 8.16 89.74 7.89Q89.55 7.62 89.23 7.49Q88.91 7.37 88.41 7.37L88.41 7.37Q88.08 7.37 87.69 7.42Q87.29 7.46 86.88 7.54Q86.46 7.62 86.07 7.70Q85.68 7.78 85.35 7.86Q85.03 7.93 84.82 7.99Q84.61 8.05 84.57 8.06L84.57 8.06L84.57 14.47Q84.57 15.20 84.61 15.75Q84.64 16.30 84.70 16.71Q84.75 17.12 84.81 17.40Q84.87 17.67 84.90 17.84L84.90 17.84Q84.74 17.93 84.53 17.99Q84.33 18.06 84.10 18.11Q83.87 18.16 83.64 18.19Q83.41 18.21 83.23 18.21L83.23 18.21Q82.92 18.21 82.68 18.16Q82.43 18.11 82.24 17.98Q82.05 17.85 81.96 17.63Q81.86 17.41 81.86 17.09L81.86 17.09ZM99.96 10.13L99.96 10.13Q99.96 11.70 100.64 12.58Q101.32 13.46 102.74 13.46L102.74 13.46Q104.16 13.46 104.84 12.58Q105.53 11.70 105.53 10.13L105.53 10.13Q105.53 8.55 104.85 7.69Q104.17 6.82 102.74 6.82L102.74 6.82Q101.32 6.82 100.64 7.69Q99.96 8.55 99.96 10.13ZM98.31 19.58L98.31 19.58Q98.74 20.24 99.25 20.75Q99.76 21.26 100.38 21.61Q101.00 21.96 101.75 22.14Q102.49 22.32 103.37 22.32L103.37 22.32Q103.83 22.32 104.41 22.25Q104.99 22.18 105.50 21.98Q106.02 21.79 106.37 21.43Q106.72 21.07 106.72 20.50L106.72 20.50Q106.72 20.04 106.33 19.77Q105.94 19.50 105.30 19.32Q104.66 19.15 103.84 19.04Q103.02 18.94 102.16 18.81Q101.31 18.68 100.49 18.49Q99.67 18.30 99.03 17.98Q98.39 17.66 98.00 17.16Q97.61 16.65 97.61 15.89L97.61 15.89Q97.61 15.42 97.78 15.10Q97.96 14.78 98.23 14.55Q98.50 14.33 98.81 14.17Q99.13 14.00 99.41 13.85L99.41 13.85Q98.38 13.27 97.79 12.32Q97.20 11.38 97.20 10.13L97.20 10.13Q97.20 9.08 97.62 8.25Q98.04 7.42 98.79 6.84Q99.54 6.26 100.55 5.95Q101.55 5.64 102.74 5.64L102.74 5.64Q104.23 5.64 105.43 6.13Q106.64 6.63 107.38 7.54L107.38 7.54L108.07 6.67Q108.46 6.20 108.77 5.90Q109.08 5.60 109.36 5.44Q109.64 5.27 109.92 5.21Q110.19 5.16 110.52 5.16L110.52 5.16Q110.67 5.16 110.87 5.20Q111.06 5.24 111.22 5.33Q111.39 5.43 111.50 5.57Q111.62 5.72 111.62 5.93L111.62 5.93L111.62 7.51Q110.81 7.51 110.25 7.52Q109.69 7.54 109.28 7.62Q108.87 7.71 108.54 7.90Q108.22 8.09 107.91 8.43L107.91 8.43Q108.08 8.82 108.18 9.23Q108.28 9.64 108.28 10.15L108.28 10.15Q108.28 11.19 107.86 12.02Q107.44 12.84 106.69 13.43Q105.95 14.02 104.94 14.33Q103.92 14.64 102.74 14.64L102.74 14.64Q102.11 14.64 101.54 14.55Q100.97 14.47 100.44 14.31L100.44 14.31Q100.00 14.54 99.74 14.81Q99.48 15.07 99.48 15.34L99.48 15.34Q99.48 15.81 99.90 16.06Q100.31 16.31 101.00 16.45Q101.68 16.59 102.56 16.66Q103.44 16.73 104.35 16.84Q105.26 16.95 106.14 17.12Q107.02 17.30 107.70 17.65Q108.39 18.01 108.80 18.59Q109.22 19.16 109.22 20.06L109.22 20.06Q109.22 21 108.69 21.70Q108.16 22.39 107.30 22.85Q106.43 23.31 105.32 23.54Q104.20 23.77 103.03 23.77L103.03 23.77Q102.21 23.77 101.38 23.66Q100.56 23.55 99.79 23.37Q99.01 23.18 98.34 22.92Q97.68 22.65 97.18 22.34Q96.69 22.03 96.40 21.68Q96.12 21.33 96.12 20.95L96.12 20.95Q96.12 20.78 96.24 20.63Q96.36 20.47 96.63 20.31Q96.89 20.16 97.31 19.97Q97.72 19.79 98.31 19.58ZM132.84 2.31L137.47 15.29L137.63 15.29Q138.28 13.29 138.74 11.83Q139.20 10.37 139.50 9.34Q139.80 8.31 139.97 7.64Q140.13 6.97 140.21 6.54Q140.30 6.12 140.31 5.87Q140.33 5.61 140.33 5.43L140.33 5.43Q140.33 4.90 140.27 4.42Q140.20 3.95 140.11 3.53Q140.02 3.12 139.92 2.77Q139.82 2.43 139.73 2.16L139.73 2.16Q141.80 1.27 141.93 1.24Q142.05 1.22 142.18 1.22L142.18 1.22Q142.62 1.22 142.85 1.62Q143.09 2.03 143.09 2.71L143.09 2.71Q143.09 3.35 142.90 4.32Q142.72 5.29 142.39 6.48Q142.07 7.68 141.60 9.06Q141.14 10.44 140.57 11.93Q140.00 13.42 139.35 14.96Q138.69 16.50 137.98 18L137.98 18L136.56 18Q136.28 18 136.07 17.96Q135.86 17.92 135.69 17.81Q135.52 17.71 135.39 17.52Q135.27 17.33 135.18 17.04L135.18 17.04L132 8.18Q131.86 8.80 131.63 9.57Q131.40 10.35 131.11 11.20Q130.82 12.06 130.48 12.96Q130.14 13.86 129.77 14.75Q129.40 15.63 129.02 16.46Q128.65 17.30 128.29 18L128.29 18L126.80 18Q126.52 18 126.30 17.96Q126.09 17.92 125.93 17.81Q125.77 17.71 125.64 17.52Q125.51 17.33 125.40 17.04L125.40 17.04L120.36 3.39L118.30 4.30L117.91 3.46Q118.21 3.19 118.66 2.80Q119.12 2.41 119.64 2.06Q120.16 1.71 120.68 1.46Q121.20 1.22 121.61 1.22L121.61 1.22Q121.97 1.22 122.32 1.41Q122.67 1.59 122.84 2.04L122.84 2.04L127.73 15.29L127.88 15.29Q128.25 14.43 128.58 13.48Q128.92 12.54 129.21 11.59Q129.50 10.64 129.75 9.72Q130.00 8.80 130.21 7.96Q130.42 7.11 130.58 6.39Q130.73 5.67 130.85 5.13L130.85 5.13L130.76 4.83Q130.52 4.13 130.32 3.62Q130.11 3.11 129.94 2.75Q129.76 2.39 129.63 2.17Q129.49 1.96 129.41 1.83L129.41 1.83Q129.81 1.49 130.34 1.35Q130.86 1.22 131.26 1.22L131.26 1.22Q131.58 1.22 131.82 1.26Q132.06 1.30 132.25 1.42Q132.43 1.54 132.58 1.75Q132.73 1.97 132.84 2.31L132.84 2.31ZM145.29 6.32L145.29 6.32Q145.54 6.21 145.98 6.12Q146.43 6.02 146.96 5.96Q147.49 5.91 148.05 5.87Q148.61 5.84 149.06 5.84L149.06 5.84Q149.31 5.84 149.50 5.85Q149.68 5.86 149.81 5.92Q149.94 5.98 150.01 6.10Q150.07 6.22 150.07 6.46L150.07 6.46L150.07 9.27L151.56 7.15Q152.12 6.38 152.81 6.01Q153.49 5.64 154.36 5.64L154.36 5.64Q154.51 5.64 154.75 5.65Q154.99 5.67 155.22 5.74Q155.45 5.81 155.61 5.94Q155.78 6.07 155.78 6.29L155.78 6.29Q155.78 6.35 155.78 6.39Q155.78 6.42 155.75 6.48L155.75 6.48L155.25 8.13Q154.80 7.99 154.45 7.93Q154.09 7.88 153.79 7.88L153.79 7.88Q153.15 7.88 152.58 8.23Q152.00 8.59 151.52 9.08Q151.04 9.56 150.67 10.06Q150.30 10.56 150.07 10.83L150.07 10.83L150.07 14.47Q150.07 15.20 150.11 15.75Q150.14 16.30 150.19 16.71Q150.25 17.12 150.30 17.40Q150.36 17.67 150.40 17.84L150.40 17.84Q150.23 17.93 150.03 17.99Q149.82 18.06 149.60 18.11Q149.37 18.16 149.14 18.19Q148.91 18.21 148.72 18.21L148.72 18.21Q148.42 18.21 148.17 18.16Q147.93 18.11 147.74 17.98Q147.55 17.85 147.45 17.63Q147.35 17.41 147.35 17.09L147.35 17.09L147.35 7.20L145.29 7.20L145.29 6.32ZM160.07 11.16L166.14 11.16Q166.21 10.92 166.23 10.69Q166.25 10.45 166.25 10.20L166.25 10.20Q166.25 9.62 166.06 9.04Q165.87 8.46 165.50 7.99Q165.13 7.52 164.58 7.23Q164.04 6.94 163.34 6.94L163.34 6.94Q162.43 6.94 161.83 7.28Q161.23 7.63 160.85 8.21Q160.46 8.79 160.29 9.56Q160.11 10.32 160.07 11.16L160.07 11.16ZM157.34 12L157.34 12Q157.34 10.61 157.79 9.44Q158.24 8.27 159.09 7.43Q159.94 6.59 161.17 6.11Q162.40 5.64 163.96 5.64L163.96 5.64Q165.13 5.64 166.05 6.01Q166.98 6.39 167.63 7.02Q168.27 7.65 168.61 8.48Q168.95 9.32 168.95 10.22L168.95 10.22Q168.95 10.64 168.88 11.06Q168.81 11.48 168.61 11.82Q168.41 12.16 168.05 12.38Q167.68 12.60 167.10 12.60L167.10 12.60L160.09 12.60Q160.21 13.65 160.64 14.46Q161.07 15.27 161.75 15.83Q162.43 16.38 163.32 16.66Q164.21 16.95 165.25 16.95L165.25 16.95Q165.95 16.95 166.70 16.82Q167.45 16.70 168.25 16.44L168.25 16.44L168.63 17.23Q168.15 17.55 167.60 17.79Q167.05 18.02 166.46 18.17Q165.88 18.32 165.27 18.39Q164.66 18.46 164.07 18.46L164.07 18.46Q162.79 18.46 161.57 18.05Q160.36 17.65 159.42 16.84Q158.47 16.03 157.90 14.82Q157.34 13.62 157.34 12ZM172.55 15.16L172.55 15.16Q172.86 15.40 173.31 15.73Q173.77 16.05 174.30 16.35Q174.84 16.65 175.45 16.87Q176.05 17.09 176.67 17.09L176.67 17.09Q177.06 17.09 177.42 16.97Q177.77 16.86 178.05 16.64Q178.34 16.42 178.50 16.10Q178.66 15.77 178.66 15.36L178.66 15.36Q178.66 14.88 178.35 14.52Q178.04 14.16 177.59 13.88Q177.14 13.59 176.63 13.38Q176.11 13.16 175.71 12.98L175.71 12.98Q175.02 12.68 174.33 12.35Q173.65 12.02 173.10 11.57Q172.56 11.12 172.21 10.50Q171.87 9.88 171.87 8.98L171.87 8.98Q171.87 8.07 172.32 7.44Q172.77 6.81 173.49 6.40Q174.21 6 175.10 5.82Q175.99 5.64 176.86 5.64L176.86 5.64Q177.40 5.64 178.00 5.68Q178.61 5.73 179.12 5.84Q179.63 5.95 179.96 6.13Q180.29 6.30 180.29 6.55L180.29 6.55Q180.29 6.64 180.22 6.80L180.22 6.80L179.43 8.33Q179.20 8.19 178.82 7.96Q178.44 7.73 177.96 7.52Q177.48 7.31 176.94 7.16Q176.39 7.01 175.83 7.01L175.83 7.01Q175.02 7.01 174.50 7.38Q173.99 7.76 173.99 8.45L173.99 8.45Q173.99 8.99 174.29 9.39Q174.60 9.79 175.10 10.10Q175.59 10.41 176.23 10.66Q176.87 10.91 177.54 11.18Q178.21 11.45 178.85 11.75Q179.48 12.06 179.98 12.46Q180.48 12.87 180.79 13.40Q181.09 13.93 181.09 14.66L181.09 14.66Q181.09 15.69 180.64 16.39Q180.20 17.10 179.49 17.54Q178.78 17.98 177.91 18.17Q177.04 18.36 176.19 18.36L176.19 18.36Q175.46 18.36 174.64 18.21Q173.82 18.05 173.13 17.81Q172.44 17.57 171.99 17.29Q171.54 17.00 171.54 16.76L171.54 16.76Q171.54 16.61 171.61 16.46L171.61 16.46L172.55 15.16ZM187.91 6L191.99 6L191.99 6.50Q191.99 7.03 191.76 7.24Q191.53 7.44 191.03 7.44L191.03 7.44L187.91 7.44L187.91 14.31Q187.91 15.62 188.39 16.29Q188.87 16.97 189.86 16.97L189.86 16.97Q190.29 16.97 190.75 16.86Q191.20 16.76 191.57 16.64Q191.93 16.52 192.16 16.44Q192.39 16.35 192.38 16.37L192.38 16.37L192.75 17.18Q192.34 17.44 191.93 17.65Q191.52 17.87 191.06 18.03Q190.61 18.19 190.08 18.28Q189.55 18.36 188.89 18.36L188.89 18.36Q188.04 18.36 187.35 18.10Q186.67 17.84 186.19 17.34Q185.71 16.85 185.45 16.14Q185.19 15.42 185.19 14.52L185.19 14.52L185.19 7.44L182.77 7.44L182.77 6.91Q182.77 6.39 182.99 6.19Q183.22 6 183.73 6L183.73 6L185.19 6L185.19 3.21Q185.19 2.89 185.29 2.68Q185.39 2.46 185.58 2.34Q185.77 2.21 186.01 2.16Q186.26 2.11 186.56 2.11L186.56 2.11Q186.75 2.11 186.98 2.13Q187.21 2.16 187.44 2.20Q187.66 2.24 187.87 2.31Q188.07 2.38 188.24 2.47L188.24 2.47Q188.20 2.64 188.14 2.91Q188.09 3.19 188.03 3.61Q187.98 4.03 187.95 4.62Q187.91 5.21 187.91 6L187.91 6ZM198.36 0.62L198.36 16.83L200.40 16.83L200.40 17.71Q200.20 17.81 199.86 17.91Q199.51 18 199.09 18.07Q198.67 18.14 198.21 18.18Q197.75 18.21 197.33 18.21L197.33 18.21Q196.97 18.21 196.66 18.17Q196.36 18.13 196.14 18.01Q195.91 17.88 195.79 17.67Q195.66 17.45 195.66 17.09L195.66 17.09L195.66 1.37L193.58 1.37L193.58 0.48Q193.83 0.38 194.28 0.28Q194.73 0.19 195.26 0.13Q195.79 0.07 196.34 0.04Q196.90 0 197.36 0L197.36 0Q197.60 0 197.79 0.01Q197.98 0.02 198.11 0.08Q198.23 0.14 198.30 0.26Q198.36 0.39 198.36 0.62L198.36 0.62ZM206.74 6.41L206.74 16.83L208.78 16.83L208.78 17.71Q208.58 17.81 208.24 17.91Q207.89 18 207.47 18.07Q207.05 18.14 206.59 18.18Q206.13 18.21 205.71 18.21L205.71 18.21Q205.35 18.21 205.04 18.17Q204.74 18.13 204.51 18.01Q204.28 17.88 204.15 17.67Q204.02 17.45 204.02 17.09L204.02 17.09L204.02 7.15L201.96 7.15L201.96 6.27Q202.21 6.16 202.65 6.07Q203.10 5.98 203.63 5.92Q204.16 5.86 204.72 5.82Q205.28 5.79 205.73 5.79L205.73 5.79Q205.98 5.79 206.17 5.80Q206.36 5.81 206.48 5.87Q206.61 5.93 206.68 6.05Q206.74 6.18 206.74 6.41L206.74 6.41ZM203.74 1.92L203.74 1.92Q203.74 1.59 203.87 1.30Q204 1.01 204.22 0.80Q204.45 0.59 204.75 0.46Q205.05 0.34 205.39 0.34L205.39 0.34Q205.73 0.34 206.04 0.46Q206.34 0.59 206.57 0.80Q206.79 1.01 206.92 1.30Q207.05 1.59 207.05 1.92L207.05 1.92Q207.05 2.25 206.92 2.53Q206.79 2.81 206.57 3.02Q206.34 3.23 206.04 3.36Q205.73 3.48 205.39 3.48L205.39 3.48Q205.05 3.48 204.75 3.36Q204.45 3.23 204.22 3.02Q204 2.81 203.87 2.53Q203.74 2.25 203.74 1.92ZM212.41 17.09L212.41 7.17L210.35 7.17L210.35 6.29Q210.60 6.19 211.04 6.09Q211.49 6 212.02 5.94Q212.55 5.88 213.11 5.85Q213.67 5.81 214.13 5.81L214.13 5.81Q214.37 5.81 214.56 5.82Q214.75 5.84 214.88 5.89Q215.00 5.95 215.07 6.08Q215.13 6.20 215.13 6.43L215.13 6.43L215.13 7.01Q215.31 6.95 215.78 6.73Q216.26 6.50 216.94 6.26Q217.62 6.02 218.43 5.83Q219.23 5.64 220.08 5.64L220.08 5.64Q221.10 5.64 221.73 5.92Q222.36 6.20 222.71 6.70Q223.07 7.20 223.19 7.88Q223.31 8.55 223.31 9.36L223.31 9.36L223.31 16.83L225.35 16.83L225.35 17.71Q225.15 17.81 224.81 17.91Q224.46 18 224.04 18.07Q223.62 18.14 223.16 18.18Q222.70 18.21 222.28 18.21L222.28 18.21Q221.92 18.21 221.61 18.17Q221.31 18.13 221.09 18.01Q220.86 17.88 220.73 17.67Q220.61 17.45 220.61 17.09L220.61 17.09L220.61 9.60Q220.61 9 220.54 8.58Q220.48 8.16 220.29 7.89Q220.11 7.62 219.79 7.49Q219.47 7.37 218.96 7.37L218.96 7.37Q218.64 7.37 218.24 7.42Q217.85 7.46 217.44 7.54Q217.02 7.62 216.63 7.70Q216.23 7.78 215.91 7.86Q215.59 7.93 215.38 7.99Q215.17 8.05 215.13 8.06L215.13 8.06L215.13 14.47Q215.13 15.20 215.17 15.75Q215.20 16.30 215.26 16.71Q215.31 17.12 215.37 17.40Q215.43 17.67 215.46 17.84L215.46 17.84Q215.30 17.93 215.09 17.99Q214.89 18.06 214.66 18.11Q214.43 18.16 214.20 18.19Q213.97 18.21 213.79 18.21L213.79 18.21Q213.48 18.21 213.23 18.16Q212.99 18.11 212.80 17.98Q212.61 17.85 212.51 17.63Q212.41 17.41 212.41 17.09L212.41 17.09ZM230.52 10.13L230.52 10.13Q230.52 11.70 231.20 12.58Q231.88 13.46 233.30 13.46L233.30 13.46Q234.71 13.46 235.40 12.58Q236.09 11.70 236.09 10.13L236.09 10.13Q236.09 8.55 235.41 7.69Q234.73 6.82 233.30 6.82L233.30 6.82Q231.88 6.82 231.20 7.69Q230.52 8.55 230.52 10.13ZM228.87 19.58L228.87 19.58Q229.30 20.24 229.81 20.75Q230.32 21.26 230.94 21.61Q231.56 21.96 232.31 22.14Q233.05 22.32 233.93 22.32L233.93 22.32Q234.39 22.32 234.97 22.25Q235.55 22.18 236.06 21.98Q236.58 21.79 236.93 21.43Q237.28 21.07 237.28 20.50L237.28 20.50Q237.28 20.04 236.89 19.77Q236.50 19.50 235.86 19.32Q235.22 19.15 234.40 19.04Q233.58 18.94 232.72 18.81Q231.87 18.68 231.05 18.49Q230.23 18.30 229.59 17.98Q228.95 17.66 228.56 17.16Q228.16 16.65 228.16 15.89L228.16 15.89Q228.16 15.42 228.34 15.10Q228.52 14.78 228.79 14.55Q229.05 14.33 229.37 14.17Q229.69 14.00 229.97 13.85L229.97 13.85Q228.94 13.27 228.35 12.32Q227.75 11.38 227.75 10.13L227.75 10.13Q227.75 9.08 228.18 8.25Q228.60 7.42 229.35 6.84Q230.10 6.26 231.11 5.95Q232.11 5.64 233.30 5.64L233.30 5.64Q234.79 5.64 235.99 6.13Q237.20 6.63 237.94 7.54L237.94 7.54L238.63 6.67Q239.02 6.20 239.33 5.90Q239.64 5.60 239.92 5.44Q240.20 5.27 240.47 5.21Q240.75 5.16 241.08 5.16L241.08 5.16Q241.23 5.16 241.42 5.20Q241.62 5.24 241.78 5.33Q241.95 5.43 242.06 5.57Q242.18 5.72 242.18 5.93L242.18 5.93L242.18 7.51Q241.37 7.51 240.81 7.52Q240.25 7.54 239.84 7.62Q239.43 7.71 239.10 7.90Q238.78 8.09 238.46 8.43L238.46 8.43Q238.64 8.82 238.74 9.23Q238.84 9.64 238.84 10.15L238.84 10.15Q238.84 11.19 238.42 12.02Q238.00 12.84 237.25 13.43Q236.51 14.02 235.49 14.33Q234.48 14.64 233.30 14.64L233.30 14.64Q232.66 14.64 232.10 14.55Q231.53 14.47 231 14.31L231 14.31Q230.55 14.54 230.30 14.81Q230.04 15.07 230.04 15.34L230.04 15.34Q230.04 15.81 230.46 16.06Q230.87 16.31 231.56 16.45Q232.24 16.59 233.12 16.66Q234 16.73 234.91 16.84Q235.82 16.95 236.70 17.12Q237.57 17.30 238.26 17.65Q238.95 18.01 239.36 18.59Q239.78 19.16 239.78 20.06L239.78 20.06Q239.78 21 239.25 21.70Q238.72 22.39 237.86 22.85Q236.99 23.31 235.88 23.54Q234.76 23.77 233.59 23.77L233.59 23.77Q232.77 23.77 231.94 23.66Q231.12 23.55 230.34 23.37Q229.57 23.18 228.90 22.92Q228.23 22.65 227.74 22.34Q227.25 22.03 226.96 21.68Q226.68 21.33 226.68 20.95L226.68 20.95Q226.68 20.78 226.80 20.63Q226.92 20.47 227.19 20.31Q227.45 20.16 227.87 19.97Q228.28 19.79 228.87 19.58Z" transform="translate(51, 5.5)"></path></svg>